<?xml version="1.0" encoding="utf-8"?>
<!-- Generator: Adobe Illustrator 24.2.0, SVG Export Plug-In . SVG Version: 6.00 Build 0)  -->
<svg version="1.1" id="Layer_1" xmlns="http://www.w3.org/2000/svg" xmlns:xlink="http://www.w3.org/1999/xlink" x="0px" y="0px"
	 viewBox="0 0 332 331.6" enable-background="new 0 0 332 331.6" xml:space="preserve">
<g>
	<path fill="none" d="M187.1,263.7c-6.4-0.2-12.9-0.3-19.2-0.2c-0.1,0.2-0.1,0.3-0.1,0.3c0.2,4.1-0.8,8.1-1,12.2c0,0.1,0,0.3,0,0.4
		c-0.3,0.3-0.5,0.7-0.9,0.8c-0.5,0.2-1,0-1.2-0.5c-0.1-0.3-0.2-0.7-0.2-1.1c-0.1-0.8,0.1-1.7-0.1-2.4c-0.6-2.6-0.6-5.2-0.7-7.8
		c0-0.5,0-1,0-1.6c-6.5,0.2-12.8,0.6-19.1,1.5c-0.1,1-0.3,2-0.3,2.9c-0.1,2.9-0.1,5.8-0.1,8.6c0,2.5,0.9,4.8,2.4,6.7
		c2.1,2.6,4.9,4.2,7.9,5.7c0.2,0.1,0.4,0.2,0.6,0.2c1.8,0.3,3.6,0.7,5.5,0.8c2.7,0.2,5.4,0.1,8.1,0.3c3.6,0.2,7-0.4,10.4-1.5
		c0.7-0.2,1.3-0.6,1.9-1.1c1.9-1.6,3.5-3.6,5-5.6c1.4-1.7,2.1-3.7,2.1-5.8c0.1-2.7,0-5.4-0.1-8.1C188,266.7,187.7,265.2,187.1,263.7
		z"/>
	<path d="M322.9,224.9c-0.2-0.3-0.4-0.6-0.6-0.9c0,0,0.1-0.1,0.1-0.1c0.7,0.5,1.3,1,2.1,1.5c0-1.2,0-2.2,0-3.2
		c-1.5-1.1-3-1.9-4.9-0.9c-0.4,0.2-0.8,0.2-1.2,0.3c-1,0.2-2.1,0.4-3.2,0.6c0.3,0.4,0.6,0.6,0.8,0.8c1.7,1.7,3.3,3.5,5,5.2
		c1.3,1.3,2.5,2.7,3.8,4c0.1,0.1,0.1,0.2,0.2,0.3v-4.6C324.3,227,323.6,226,322.9,224.9z"/>
	<path d="M72.7,11.1c0.2,0.7,0.4,1.4,0.7,2.1c3.7,9.4,7.2,18.9,11,28.3c6.6,16.4,12.2,33.1,17.1,50c1.6,5.5,3.2,11.1,4.8,16.7
		c3.6,0.1,7.1,0.4,10.6,0.4c14.9,0.1,29.9,0.1,44.8,0.1c0.5,0,0.9,0,1.6,0c-0.3,0.3-0.4,0.5-0.5,0.7c-2,2.3-3.5,4.9-4.6,7.7
		c-2,4.9-3.1,10-3.7,15.3c-0.5,4.9-0.5,9.7-0.2,14.6c0.2,2.5,0.4,5.1,2,7.2c0.4,0.5,0.5,1.1,0.7,1.7c0.1,0.2,0.1,0.5,0.2,0.6
		c0.2,0.2,0.5,0.4,0.6,0.3c0.2-0.1,0.5-0.4,0.5-0.6c0-0.4-0.1-0.8-0.3-1.1c-0.5-0.9-0.5-1.9-0.5-2.9c0.2-3.1,0.4-6.2,0.5-9.3
		c0.3-6.6,1-13.2,2.9-19.6c1.1-3.8,2.6-7.4,5.1-10.5c0.3-0.4,0.6-1,1.2-1c0.1,0.1,0.2,0.1,0.2,0.2c2.4,3.6,4.7,7.3,6.4,11.3
		c1.9,4.3,2.6,8.9,2.9,13.6c0.3,5.5,0.1,12-0.8,17.8c0,0.1,0,0.2,0,0.3c0.4,0.7,0,1.2-0.2,1.8c-0.7,2.3-1.4,4.5-2,6.8
		c-0.8,3.2-1.5,6.4-2.1,9.7c-0.4,2.6-0.5,5.3-0.7,8c-0.1,0.8-0.3,1.4-0.7,2c-0.5,0.7-1,1.5-1.5,2.3c-0.3,0.5-0.3,1.1,0.1,1.5
		c0.5,0.5,1,0.4,1.6,0.1c0.3-0.2,0.6-0.4,0.8-0.6c0.6-0.5,1.2-1,1.6-1.7c2.2-2.9,4.4-5.8,6.5-8.6c0.5-0.7,0.9-1.5,1.1-2.4
		c-1.5-0.4-2-0.4-3.1,0.4c-0.8,0.6-1.4,1.4-2.1,2.1c-0.2,0.2-0.4,0.4-0.9,0.8c0.1-0.6,0.1-0.8,0.2-1.1c0.4-0.9,0.7-1.8,1.1-2.6
		c2.9-5.2,6.4-9.9,10.4-14.3c4.6-5.2,9.8-9.8,15.6-13.7c5.8-4.1,12.2-7.1,18.7-9.8c0.3-0.1,0.6-0.2,0.9-0.3c-0.3,0.4-0.7,0.6-1,0.8
		c-1.3,1.1-2.7,2.2-3.9,3.3c-0.4,0.4-0.7,1-0.9,1.5c-0.1,0.3-0.1,0.8,0.1,1c0.3,0.4,0.7,0.1,1-0.1c0.5-0.3,1-0.6,1.5-1
		c2.9-1.9,6-3.4,9.3-4.4c1.8-0.6,3.7-1.1,5.6-1.6c0.8-0.2,1.6-0.5,2.4-0.8c0.4-0.2,0.8-0.4,1.3-0.6c-0.8-1.3-2.1-1.9-3.6-1.7
		c-1.5,0.1-3,0.5-4.6,0.8c-1,0.2-1.9,0.6-3,0.9c0.5-0.6,1-1.1,1.4-1.6c-0.9-1.1-2-1.3-3.2-1.2c-2.6,0.2-5.1,1.1-7.6,2.1
		c-9,3.5-17,8.4-24.3,14.6c-4.8,4.1-9.1,8.6-12.8,13.8c-0.1,0.2-0.2,0.4-0.3,0.5c-0.1-0.1-0.2-0.1-0.3-0.2c0.1-0.4,0.2-0.9,0.4-1.3
		c1.1-3.8,2.3-7.6,3.3-11.4c0.5-1.8,0.7-3.6-0.2-5.4c-0.2-0.3-0.1-0.8-0.1-1.1c-0.1-2.5-0.1-4.9-0.2-7.4c-0.4-5.7-2-11-4.7-16
		c-1.8-3.3-4-6.4-6.4-9.4c-0.2-0.2-0.3-0.5-0.6-0.9c0.3,0,0.5-0.1,0.7-0.1c11,0.1,22,0.2,33.1,0.3c1.3,0,2.7,0.1,4,0.1
		c0.9,0,1.9-0.2,2.8-0.2c3.1,0,6.3,0,9.4,0c0.5,0,0.9,0,1.4,0c1-2.1,2-4,2.8-6c0.7-1.7,1.3-3.4,2-5.2c0.3-0.7,0.6-1.4,1-2.1
		c0.3-0.6,0.8-1.1,1.1-1.7c1.7-3.7,3.3-7.4,5.1-11c9.1-18,19.1-35.4,29.9-52.5c2.8-4.4,5.7-8.8,8.6-13.2c2.1-3.2,4.1-6.5,6.7-9.4
		c-2.4-0.6-4.8-1-7.3-1.3c-2.1,2.4-4.3,4.7-6.3,7.2c-5.5,7-10.8,14.1-16.2,21.1c-1,1.3-2,2.4-2.8,3.8c-1.1,1.8-2.5,3.4-3.7,5.1
		c-1.4,2-3,4-4.3,6.1c-4.7,7.8-9.3,15.6-14,23.3c-4.6,7.4-9.3,14.7-13.5,22.3c-0.9,1.6-1.7,3.2-2.6,4.8c-1.7-0.1-3.5-0.2-5.2-0.1
		c-3,0-5.9,0.1-8.9,0.2c-2.9,0.1-5.8,0.4-8.8,0.4c-9.5,0.1-18.9-0.3-28.4,0c-7.7,0.2-15.3,0.1-23,0c-3.5,0-7-0.3-10.4-0.5
		c-1.6-0.1-3.2-0.3-4.8-0.5c-0.2-0.7-0.4-1.2-0.6-1.7c-2.1-5.7-4.1-11.5-6.2-17.2c-2.9-7.8-6-15.5-10-22.8c-0.3-0.6-0.6-1.3-0.9-2
		c-2.5-6.8-5.5-13.4-8.8-19.8c-4.1-8-8.6-15.8-13-23.6c-1.2-2.2-2.6-4.4-3.7-6.7h-4.2C71.6,7.8,72.2,9.4,72.7,11.1z"/>
	<path d="M210.1,265c3.4-0.6,6.6-1.6,9.2-4.1c0.7-0.7,1.6-1.3,2.5-1.8c1.3-0.8,2.3-1.8,3.2-3c1.3-1.7,2.2-3.6,2.8-5.7
		c1.4-4.8,2.6-9.6,2.5-14.6c0-0.3,0.1-0.7,0.1-0.9c1.6,0.3,3.1,0.5,4.6,0.7c0.3,0,0.6-0.2,0.8-0.2c0.7-0.2,1.3-0.6,2-0.7
		c1-0.2,1.1-0.4,0.9-1.4c-0.1-0.3-0.1-0.6-0.2-1.1c-0.5-0.2-1.1-0.4-1.8-0.7c-4.1-1.6-8.1-3.3-11.6-6c-0.1-0.1-0.2-0.2-0.3-0.2
		c-1-0.5-1.8-0.2-2,0.9c-0.2,0.9-0.2,1.8-0.2,2.7c0,3.3,0,6.5-0.1,9.8c0,0.5-0.1,1-0.3,1.5c-1.7,4.2-4.1,7.8-7.3,11
		c-0.4,0.4-0.9,0.6-1.4,0.9c-1.8,0.8-3.7,1.4-5.5,2.2c-3.7,1.6-7.5,2.7-11.6,2.4c-2.1-0.1-4.1-0.3-6.2-0.3c-4-0.1-8-0.1-12-0.1
		c-5.2,0.1-10.4,0.2-15.6,0.4c-4.3,0.2-8.5,0.5-12.8,0.6c-5.5,0.2-10.9,0-16.4,0.6c-0.9,0.1-1.9,0-2.8,0c-0.3,0-0.5-0.1-0.7-0.2
		c-0.9-0.3-1.8-0.6-2.7-0.8c-3.5-1.1-6.7-2.9-9.5-5.3c-1.9-1.7-3.4-3.7-4.3-6.1c-0.4-0.9-0.6-1.9-0.7-2.9c-0.1-2.9-0.1-5.9,0-8.8
		c0-1.1,0.3-2.4,0.9-3.3c0.7-1.3,0.8-2.7,1.2-3.9c-1.8-0.8-1.8-0.7-3.2,0c-5,2.6-10.1,4.7-15.8,5.3c-0.4,0-0.7,0.2-1.1,0.3
		c0.2,1.5,0.8,2.2,2.1,2.5c1.2,0.2,2.4,0.3,3.6,0.1c1.2-0.2,2.4-0.2,3.7-0.3c0,0.3,0,0.5,0,0.7c-0.4,2.5-0.4,5-0.4,7.5
		c0,2,0.4,3.8,1.2,5.6c1.6,3.6,3.6,6.9,6.2,9.8c3.5,3.8,7.5,6.9,12.5,8.3c0.2,0.1,0.5,0.2,0.7,0.3c0.7,0.6,1.6,0.7,2.4,0.6
		c3-0.3,6.1-0.7,9.1-1.1c0.5-0.1,0.9-0.1,1.5-0.1c0,0.4,0,0.6-0.1,0.9c-0.8,4-0.5,8.1-0.6,12.1c-0.1,3.4,1.6,6,3.2,8.6
		c0.2,0.3,0.4,0.5,0.6,0.7c1.4,1.6,3.2,2.9,5,4.1c4.6,3.2,9.8,5.1,15.4,5.4c3.2,0.2,6.4,0.2,9.7,0.2c0.9,0,1.9-0.1,2.8-0.3
		c3.1-0.7,6.1-1.4,9.1-2.2c0.5-0.1,0.9-0.3,1.3-0.5c2.9-1.8,5.8-3.7,7.9-6.5c0.3-0.4,0.6-0.7,0.9-1.1c1.6-1.8,2.6-3.9,3.4-6.2
		c1.2-3.6,1.3-7.3,1-11c-0.1-1.1-0.3-2.1-0.8-3.1c-0.3-0.6-0.5-1.3-0.8-2.2c1.1,0.1,2,0.1,2.9,0.1
		C202.1,265.5,206.1,265.7,210.1,265z M188.1,276.4c-0.1,2.2-0.8,4.1-2.1,5.8c-1.5,2-3.1,4-5,5.6c-0.5,0.4-1.2,0.8-1.9,1.1
		c-3.4,1.1-6.8,1.7-10.4,1.5c-2.7-0.1-5.4-0.1-8.1-0.3c-1.8-0.1-3.7-0.5-5.5-0.8c-0.2,0-0.4-0.1-0.6-0.2c-2.9-1.5-5.8-3.1-7.9-5.7
		c-1.5-1.9-2.4-4.2-2.4-6.7c0-2.9,0-5.8,0.1-8.6c0-0.9,0.2-1.9,0.3-2.9c6.3-0.9,12.6-1.3,19.1-1.5c0,0.6,0,1.1,0,1.6
		c0,2.6,0.1,5.2,0.7,7.8c0.2,0.8,0.1,1.6,0.1,2.4c0,0.4,0.1,0.8,0.2,1.1c0.2,0.5,0.7,0.7,1.2,0.5c0.3-0.1,0.6-0.5,0.9-0.8
		c0.1-0.1,0-0.2,0-0.4c0.2-4.1,1.2-8.1,1-12.2c0,0,0-0.1,0.1-0.3c6.4-0.1,12.8,0,19.2,0.2c0.6,1.5,0.9,3,0.9,4.6
		C188.1,271,188.2,273.7,188.1,276.4z"/>
	<path d="M155.6,207.7c-3.8,0.3-7.6,0.9-11.2,2.2c-0.3,0.1-0.6,0.2-0.9,0.2c-1.8,0.1-3.1,1.1-4.2,2.5c-1.1,1.4-1.9,3-2.4,4.7
		c-1,3.2-1.1,6.5-1.1,9.8c0,3.9,1.6,7.1,4.3,9.9c0.3,0.3,0.7,0.7,0.9,1.1c2,3.2,4.9,5.2,8.4,6.2c0.9,0.3,1.8,0.6,2.6,1
		c4,2.1,8.2,2.7,12.6,2.1c1.6-0.2,3.3-0.2,4.9-0.3c1.8-0.1,3.6,0,5.4-0.2c4-0.5,7.6-2.3,11.2-4.1c1.5-0.8,1.8-2.4,3.1-3.2
		c0,0,0-0.1,0-0.1c-0.1-0.6,0.3-0.7,0.7-0.9c1.2-0.5,1.9-1.4,2.5-2.5c1.1-1.9,2-4,2.5-6.2c0.2-0.8,0.4-1.6,0.4-2.4
		c0.1-2.3,0.1-4.6,0-6.8c-0.1-2.2-0.9-4.2-2.7-5.6c-0.2-0.2-0.5-0.4-0.6-0.7c-0.3-1.1-1.2-1.5-2.1-1.9c-0.5-0.2-1-0.5-1.5-0.8
		c-2.9-2-6.2-3.1-9.7-3.7c-3.1-0.5-6.2-0.6-9.6-0.9C165,207.3,160.3,207.4,155.6,207.7z"/>
	<path d="M87.4,181.2c0.7,2.6,2.5,4.5,5,5.5c2.4,1,4.9,1.7,7.5,1.9c1.7,0.1,3.4,0.1,5,0c1.5-0.2,3-0.8,4.5-1.1
		c0.8-0.1,1.3-0.5,1.9-0.9c1.8-1.5,3.2-3.3,4.3-5.3c1.1-2,2-4.1,2.4-6.4c0.4-2.2,0.8-4.3,0.2-6.6c-0.7-2.6-1-5.2-2.4-7.6
		c-1.2-2.1-3-3.7-4.9-5.3c-2.5-2.1-5.2-3.4-8.2-3c-3.7-0.1-6.9,0.6-9.9,2.3c-0.5,0.3-1,0.7-1.4,1.1c-2,2.7-3.8,5.5-5,8.7
		c-0.4,1.1-0.9,2.3-0.9,3.5c-0.1,1.7,0,3.5,0.2,5.1C86.1,176,86.6,178.7,87.4,181.2z"/>
	<path d="M242.8,187.9c1-0.1,1.9-0.5,2.8-0.9c1.9-1,3.5-2.3,4.9-3.9c0.9-1,1.6-2.1,2-3.4c0.8-2.6,1.5-5.2,1.2-8
		c-0.1-1.1-0.1-2.2-0.2-3.2c-0.2-2.3-0.6-4.5-1.8-6.4c-1.2-2.1-2.4-4.1-4.5-5.6c-4.1-3-8.6-4.1-13.6-3.7c-0.9,0.1-2,0.4-2.8,1
		c-1.8,1.3-3.5,2.8-4.6,4.6c-1.5,2.5-2.7,5.1-3.3,8c-0.7,3.4-0.6,6.8,0.3,10.2c0.8,3.3,2.3,6.2,4.4,8.8c0.6,0.7,1.3,1.2,2.2,1.4
		c0.5,0.1,1.1,0.3,1.6,0.4c2.1,0.4,4.1,0.9,6.2,1.1C239.4,188.3,241.1,188.1,242.8,187.9z"/>
	<path d="M61.9,41.6c-0.8-0.1-1.2-0.3-1.7-0.3c-5-0.6-9.9-0.4-14.7,1c-4.6,1.4-9,3.1-12.9,6.1c-4.1,3.2-7.3,7.1-10.2,11.4
		c-0.4,0.6-0.7,1.2-0.9,1.9c-0.6,1.9,0.1,2.7,2,2.3c1-0.2,2-0.4,2.6-1.4c-0.9,0.3-1.7,0.7-2.8,0.6c0.5-0.6,0.8-1,1.2-1.4
		c5.2-6.1,11.4-10.7,19-13.3c2.8-0.9,5.6-1.9,8.6-2.2c3.7-0.4,7.4-0.5,11.2-0.7c0.2,0.4,0.3,0.8,0.5,1.1c1.3,3.6,2.6,7.1,3.9,10.7
		c2.2,5.9,4.4,11.8,6.7,17.6c1.2,3.1,2.5,6.1,3.1,9.4c0.2,0.9,0.3,1.8,0.4,2.7c0,0.2,0,0.6,0.2,0.7c0.7,0.5,0.7,1.2,0.7,1.8
		c0.2,1.8,0.4,3.6,0.6,5.4c0,0.3,0,0.6,0,1.1c-0.6-0.4-1.1-0.6-1.5-0.9c-2.1-1.2-4.3-2.4-6.6-3.1c-1.4-0.5-2.8-0.6-4.2-0.2
		c-1.5,0.4-2,1.1-1.9,2.6c0,1.4,0.8,2.5,1.8,3.5c2.9,2.9,5.8,5.8,8.7,8.7c0.4,0.4,0.8,0.8,1.3,1.4c-0.6-0.1-0.8-0.1-1-0.1
		c-3.1-0.9-6.3-1.1-9.5-0.9c-1.9,0.1-3.8,0.3-5.5,1.2c-0.9,0.5-1.9,0.9-2.8,1.3c-0.5,0.2-0.9,0.4-1.4,0.7c-0.1,0.1-0.2,0.4-0.1,0.6
		c0.1,0.1,0.3,0.2,0.5,0.2c0.2,0,0.3-0.1,0.5-0.2c1.4-0.8,2.9-0.9,4.5-0.7c2.5,0.2,5.1,0.3,7.6,0.5c0.9,0.1,1.9,0.1,2.8,0.2
		c2.3,0.3,4.5,0.7,6.8,0.9c0.6,0.1,1.3,0.1,1.9-0.1c1-0.2,1.2-1.2,0.6-2c-0.1-0.2-0.3-0.3-0.5-0.4c-1.8-1.9-3.6-3.8-5.3-5.8
		c-1.6-1.8-3.1-3.8-4.7-5.7c-0.2-0.2-0.3-0.4-0.5-0.6c0.6,0.1,1,0.3,1.4,0.5c4.9,2.6,9.5,5.6,13.6,9.3c0.6,0.5,1.2,1,1.9,1.4
		c0.9,0.5,1.7,0.3,2.3-0.2c0.6-0.6,0.7-1.3,0.1-2.2c-0.7-1.1-1.4-2.3-2.4-3.2c-1.3-1.3-2.8-2.5-4.3-3.6c-0.6-0.5-0.9-0.9-0.8-1.7
		c0-1.8,0.1-3.5-0.2-5.3c-0.9-6.3-2.5-12.4-5.1-18.2c-0.3-0.5-0.4-1.1-0.6-1.7c-0.5-1.6-0.9-3.2-1.4-4.8c-2.5-8.1-5.2-16-8.4-23.8
		c-2.8-7-5.6-14.1-8.5-21.1C56.8,18,55,13.8,53.1,9.7c-0.2-0.5-0.5-1.1-0.8-1.6c-1.1,0.3-2.2,0.6-3.2,1
		C53.8,19.7,57.3,30.8,61.9,41.6z"/>
	<path d="M7,67.2v49.1c1.4,2.8,2.9,5.4,4.7,7.9c3.2,4.5,6.9,8.5,11.9,11c1.2,0.6,2.5,1.1,3.8,0.7c1.8-0.4,3.7-0.9,5.5-1.5
		c2.3-0.8,4.5-1.6,6.8-2.6c3.5-1.4,6.9-3.1,10.1-5.1c0.6-0.4,1.3-0.9,1.8-1.5c0.5-0.5,0.5-1.1,0.2-1.7c-0.3-0.6-0.9-0.8-1.5-0.7
		c-0.6,0.1-1.2,0.3-1.7,0.5c-1.3,0.5-2.5,1.1-3.8,1.7c-5.1,2.5-10.3,4.8-15.9,6c-0.3,0.1-0.5,0.1-0.7,0.3c-0.8,0.4-1.6,0.2-2.3-0.2
		c-3.8-2.4-6.8-5.4-8.9-9.3c-1.5-2.9-3-5.9-4.5-8.9c-0.1-0.2-0.2-0.5-0.2-0.7c-0.2-0.9-0.4-1.9-0.6-2.8c-1.4-7.8-2-15.7-2.1-23.6
		c-0.1-4.8-0.2-9.6-1.3-14.2c-0.2-1-0.3-1.9-0.5-2.9c-0.1-0.7-0.2-1.4-0.4-2.3c1-2,1.6-4.3,2.2-6.6c1.1-4.9,2.7-9.6,4.7-14.2
		c0.3-0.7,0.8-1.4,1.4-2.3c0.3,1.6,1.5,2.4,1.5,3.8c0,0.5,0.5,1,1,1c0.4,0,1-0.2,1.2-0.5c0.3-0.5,0.5-1.1,0.4-1.7
		c-0.2-2.3-0.9-4.6-1.8-6.7c-0.6-1.3-1.3-2.6-2-3.9c0,0,0-0.1-0.1-0.1c-0.7,1.1-1.3,2.2-1.9,3.4c0.1,0.3,0.2,0.6,0.3,1
		c-0.4,0.1-0.7,0.1-0.9,0.2C9.4,48,7,57.4,7,67.2z"/>
	<path d="M159.2,170.3c-1.5-2.9-3.1-5.8-4.6-8.6c-0.2-0.3-0.4-0.7-0.7-0.7c-0.7-0.1-1-0.6-1.3-1.1c-4.3-5.7-9.4-10.6-14.8-15.3
		c-2.6-2.2-5.4-4.1-8.5-5.5c-0.4-0.2-0.7-0.4-1-0.5c-2.1-1-4-2.4-6.3-2.9c-2.8-0.6-5.5-1.3-8.3-1.9c-4.3-0.8-8.6-1.3-12.9-1.3
		c-4.3-0.1-8.6,0-12.9,0.2c-2,0.1-4,0.4-5.8,1.3c-0.5,0.3-1,0.7-1.3,1.2c-0.4,0.6-0.2,1,0.4,1.4c0.8,0.4,1.6,0.3,2.4,0.2
		c2.1-0.1,4.3-0.4,6.4-0.4c3.4-0.1,6.9-0.1,10.3,0c2.9,0.1,5.7,0.4,8.6,0.7c0.6,0.1,1.2,0.1,1.8,0.2c0,0.1,0,0.2,0,0.2
		c-0.4,0.1-0.7,0.2-1.3,0.4c2.3,0.3,4.2,0.7,6.1,1.5c1.7,0.7,3.4,1.3,5.2,1.9c7.2,2.2,13.2,6.2,18.7,11.3c5.1,4.7,9.5,10,13.8,15.4
		c1.7,2.1,3,4.4,3.3,7.1c0.1,0.9,0.4,1.8,0.6,2.8c0.1,0.3,0.1,0.5,0.1,0.8c-1.2-1.3-2.3-2.7-3.3-4c-0.5-0.6-0.9-0.8-1.4-0.6
		c-0.5,0.2-0.6,0.8-0.4,1.5c0.2,0.5,0.4,0.9,0.7,1.4c0.6,1,1.3,2,2,2.9c1,1.3,1.9,2.5,3,3.7c0.5,0.6,1,1,1,1.8
		c0,0.2,0.2,0.3,0.5,0.9c0.3-0.4,0.3-0.7,0.5-0.9c1-0.8,1-0.7,0.4-1.8c-0.2-0.4-0.5-0.9-0.4-1.3c0.5-2,0.1-3.8-0.2-5.8
		c-0.1-0.4-0.1-0.9,0-1.3C160.2,173.2,159.9,171.7,159.2,170.3z"/>
	<path d="M296.4,26.8c-0.5,0.3-0.9,0.7-1.2,1.1c-1.9,2-3.7,4.1-5.6,6.1c-0.9,1.1-1.9,2.1-2.8,3.2c-5.4,7-10.3,14.4-14.4,22.2
		c-3.2,6-6.2,12.2-9.3,18.3c-1.3,2.6-2.5,5.3-3,8.2c-0.2,1.2-0.1,2.5,0,3.7c0,0.3,0.5,0.7,0.8,0.9c0.5,0.2,0.9-0.1,1.2-0.6
		c0.2-0.3,0.3-0.6,0.4-0.9c0.9-2.1,1.7-4.3,2.7-6.4c3.8-7.5,7.7-15,11.6-22.5c0.1-0.1,0.2-0.2,0.3-0.4c0.2,0.3,0.4,0.4,0.5,0.6
		c2.5,3.9,4.9,7.8,6.8,12c1.2,2.7,2.3,5.5,3.5,8.2c0.8,1.8,1.5,3.7,1.2,5.7c-0.1,0.6,0.2,1,0.8,1.2c0.6,0.2,1.2-0.1,1.4-0.7
		c0.2-0.6,0.3-1.3,0.2-1.9c-0.1-1.5-0.3-2.9-0.4-4.4c-0.2-1.3-0.2-2.7-0.6-4c-2.1-7.7-5.9-14.4-11.4-20.3c1.1-1.9,2.2-3.7,3.4-5.5
		c3.3-5.2,6.8-10.3,10-15.5c1.5-2.4,3.1-4.8,5.2-6.7c0.5-0.5,0.6-1,0.3-1.5C297.7,26.6,297,26.5,296.4,26.8z"/>
	<path d="M281.2,187.1c-0.5,0.7-1,1.4-1.3,2.2c-1.2,2.3-2.3,4.6-3.5,6.9c-0.2,0.3-0.3,0.7-0.6,1.1c7.8,0.4,15.4,0.7,22.9,0.3
		c0.9,1.1,1.6,2.1,2.4,3c0.8,1,1.6,1.9,2.5,2.8c0.7,0.8,1.5,1.6,2.3,2.4c1.1-0.2,2.2-0.4,3.3-0.6c0.7-0.1,1.4-0.4,2.2-0.6
		c-2.1-2.8-4.2-5.2-6.7-7.5c0.3-0.1,0.5-0.2,0.7-0.3c-0.6-0.8-1.1-1.4-1.6-2.1c-0.5-0.7-1.2-1.1-2-1.3c-3-0.7-6.1-1-9.2-1
		c-3.6,0-7-1-10.5-1c0,0-0.1-0.1-0.2-0.2c0.3-0.3,0.5-0.7,0.7-1c3.4-4.6,6.9-9.2,10.3-13.8c0.4-0.5,0.8-1.1,0.8-1.7
		c0.1-0.7,0.3-1.2,0.7-1.7c0.2-0.2,0.3-0.4,0.4-0.7c0.3-0.8-0.1-1.4-0.9-1.2c-0.6,0.1-1.3,0.5-1.8,0.9c-1.2,0.8-2.3,1.8-3.5,2.6
		c-0.5,0.4-1.2,0.6-1.7,0.9c-0.1-0.1-0.1-0.1-0.2-0.2c0.2-0.4,0.4-0.8,0.7-1.2c1.6-2.4,3.2-4.8,4.8-7.2c0.3-0.5,0.6-1,0.7-1.5
		c0.2-0.7-0.1-1.4-0.6-1.7c-0.6-0.3-1.1,0-1.5,0.4c-0.1,0.1-0.2,0.2-0.3,0.3c-1.4,1.6-3,3.1-4.9,4.2c-0.3,0.2-0.6,0.5-0.9,0.8
		c-0.3,0.5-0.3,1,0.1,1.4c0.4,0.4,0.8,0.2,1.2,0c0.9-0.5,1.9-1,2.8-1.5c-0.1,0.6-0.3,1-0.6,1.4c-1.1,1.7-2.2,3.3-3.3,5
		c-0.8,1.3-0.4,2.2,1.2,2.3c0.4,0,0.9,0,1.5,0c-0.3,0.5-0.5,0.9-0.8,1.2C285,181.9,283.1,184.5,281.2,187.1z"/>
	<path d="M7.2,211.1C7.2,211.1,7.2,211.1,7.2,211.1C7.2,211.1,7.2,211.1,7.2,211.1z"/>
	<path d="M7.2,211.1c0.4-0.5,0.9-1.1,1.3-1.6c0.3-0.3,0.5-0.7,0.8-0.8c0.8-0.1,1.1-0.8,1.5-1.3c0.2-0.2,0.3-0.5,0.5-0.7
		c5.4-5,11.7-8.5,18.5-11.4c1-0.4,2-0.5,3-0.3c1.4,0.3,2.9,0.6,4.3,1c0.3,0.1,0.6,0.2,0.8,0.3c0.7,0.3,1.4,0.7,2.1,0.9
		c1.9,0.6,3.8,1.2,5.7,1.7c4.6,1.3,9.2,2.8,14,3.6c0.6,0.1,1.1,0.1,1.8,0.2c-0.2-0.5-0.2-0.9-0.3-1.2c-0.6-1.9-1.2-3.9-1.8-5.8
		c-0.2-0.7-0.6-1.3-1.1-1.8c-3.4-3.2-7-6.1-10.9-8.7c-0.9-0.6-1.8-1.1-2.8-1.6c-0.4-0.2-0.8-0.5-1.2,0.2c0.2,0.3,0.4,0.7,0.7,1
		c1.4,1.5,2.9,3,4.4,4.4c2.9,2.7,5.8,5.3,8.7,7.9c0.3,0.3,0.6,0.7,0.9,1c-8.3-2.1-16.5-4.6-24.9-6.2c-0.1-0.5-0.2-1.2-0.3-1.2
		c-1.7-0.1-3.3-0.1-4.9-0.1c-0.1,0-0.2,0.1-0.3,0.1c-0.3,0.1-0.7,0.3-1,0.4c-1.4,0.1-2.6,0.6-3.6,1.6c-0.7,0.7-1.5,1.4-2.3,2
		c-1.7,1.2-3.5,2.4-5.3,3.6c-0.4,0.3-0.8,0.6-1.3,0.8c-2.8,1-4.8,2.9-6.9,4.9c-0.1,0.1-0.2,0.2-0.3,0.3v6.5
		C7.1,211,7.2,211,7.2,211.1C7.2,211.1,7.2,211.1,7.2,211.1z"/>
	<path d="M283.7,129.5c-1.5-0.5-3.1-0.8-4.6-1c-1.2-0.2-2.2,0.4-2.6,1.4c-0.4,1-0.1,2,0.9,2.7c0.5,0.4,1,0.7,1.5,0.9
		c5.7,3,11.6,5.4,17.8,7c2.8,0.7,5.6,1.1,8.5,1.1c0.6,0,1.1-0.1,1.5-0.5c4.1-3.7,8.2-7.4,12.2-11.1c0.4-0.3,0.7-0.8,0.8-1.3
		c0.7-2.4,1.2-4.8,1.2-7.6c-0.3,0.4-0.5,0.6-0.7,0.7c-1.5,1.8-3,3.6-4.6,5.4c-2.2,2.5-4.5,4.9-7.2,7.1c-0.8,0.7-1.4,1.3-2.6,1.1
		c-4.3-0.4-8.5-1.3-12.6-2.7C290.2,131.7,287,130.5,283.7,129.5z"/>
	<path d="M242.4,107.4c-1.1,0.6-2.1,1.4-3.2,2.2c-0.6,0.4-1,1-1,1.7c-0.1,0.6-0.1,1.2,0.5,1.6c0.5,0.4,1.1,0.2,1.6,0
		c1.3-0.6,2.7-1.2,4-1.7c4-1.6,8-3.3,12.3-4.2c1.4-0.3,2.9-0.5,4.4-0.7c-0.2,0.3-0.5,0.5-0.7,0.6c-1.5,0.5-3,1-4.5,1.5
		c-1.5,0.5-2.1,2.1-1.1,3.2c0.4,0.4,1,0.8,1.6,0.9c1,0.2,2,0.3,2.9,0.3c1.8,0.1,3.7,0.2,5.5,0.2c1.9,0,3.9-0.1,5.8-0.1
		c1.5,0,3-0.6,4.6-0.4c0.6,0.1,1.1-0.4,1.2-0.9c0.2-0.6-0.1-1.1-0.6-1.4c-0.9-0.5-1.8-1-2.8-1.2c-1.3-0.3-2.7-0.4-4.1-0.5
		c-1.9-0.1-3.8-0.2-5.7-0.3c0-0.1,0-0.2,0-0.3c1.4-0.3,2.8-0.5,4.1-0.8c1-0.2,1.9-0.5,2.8-0.9c1-0.5,1.6-1.8,1.4-2.8
		c-0.2-1-1.1-1.7-2.3-1.9c-0.1,0-0.2,0-0.3,0c-4.2-0.3-8.3-0.1-12.5,0.7C251.5,103,246.8,105,242.4,107.4z"/>
	<path d="M324.9,252.5c-0.1-0.2-0.2-0.5-0.2-0.7c0-1.1-0.5-2-1.1-2.8c-1.9-2.5-3.2-5.3-4.5-8.1c-1.2-2.6-2.4-5.2-3.7-7.8
		c-0.4-0.8-0.8-1.5-1.2-2.2c0.1-0.1,0.2-0.1,0.3-0.2c3.3,3.7,6.5,7.3,10,11.2c0-2,0-3.9,0-5.7c0-0.2-0.2-0.5-0.4-0.7
		c-0.3-0.3-0.6-0.6-0.8-1c-1.5-2.4-3.6-4.1-6-5.7c-1.9-1.2-3.8-2.3-6.1-2.4c-1-0.1-1.9,0-2.5,0.9c-0.6,0.9-0.4,1.8,0.2,2.6
		c3.5,4.6,5.6,10,8.3,15.2c-0.7,0.8-0.7,1.5,0.1,2.3c1.9,2,3.4,4.3,4.8,6.7c0.4,0.7,0.9,1.4,1.4,2c0.3,0.4,0.7,0.8,1.2,0.7
		c0.1-0.3,0.2-0.6,0.3-0.9V252.5z"/>
	<path d="M314.5,33c-0.5-0.7-0.9-1.3-1.4-2c-0.5,0-0.9,0.3-1.2,0.8c-0.5,0.9-0.9,1.8-1.2,2.8c-0.7,3-1.3,6-2,9.1
		c-0.1,0.3-0.1,0.6,0,0.9c0.4,1.2,0.9,2.4,1.5,3.8c0.9-1.5,1.8-2.9,2.7-4.4c1,1.1,1.8,2.4,2.3,3.7c1,2.6,1.9,5.2,2.9,7.7
		c0.6,1.5,1.1,3.1,1.8,4.6c0.5,1.2,1.2,2.3,0.7,3.7c-0.2,0.7,0.2,1,1.1,1c0-0.1,0.1-0.2,0.1-0.4c0.1-3.9,0.2-7.8,0.2-11.7
		c0-0.3,0-0.5-0.1-0.8c-1.2-4.2-2.5-8.4-4.5-12.3c-0.7-1.4-1.6-2.5-3.6-2.4c0.2-1.4,0.3-2.6,0.5-3.8C314.5,33.1,314.5,33.1,314.5,33
		z"/>
	<path d="M304.2,120.8c-0.1,1.1-0.4,2-1.2,2.7c-0.2,0.2-0.5,0.4-0.6,0.6c-0.1,0.1-0.1,0.5,0,0.6c0.1,0.1,0.4,0.2,0.6,0.1
		c0.3-0.2,0.7-0.4,0.9-0.7c0.8-1.2,2.1-2.1,3.2-3c0.3-0.3,0.6-0.6,0.8-1c1.6-2.1,2.5-4.5,3.3-7c0.9-3.2,0.9-6.4,1-10
		c-0.1-1.1-0.1-2.4-0.3-3.7c-0.2-2-0.6-4-1.6-5.8c-0.4-0.7-0.9-1.5-1.5-2c-1.1-1-2.7-0.4-3,1c-0.1,0.6,0,1.2,0,1.8
		c0.2,2.2,0.6,4.4,0.7,6.7c0.2,4.9,0,9.8-1.5,14.5C304.5,117.4,304.3,119.1,304.2,120.8z"/>
	<path d="M18.1,222.3c0.2-0.7,0.4-1.4,0.3-2.1c-0.1-1-0.8-1.4-1.8-1c-0.3,0.1-0.5,0.3-0.8,0.4c-1.6,1-3.2,2-4.8,3
		c-0.4,0.2-0.8,0.4-1.1,0.6c-0.1-0.1-0.2-0.2-0.2-0.3c0.8-1.3,1.5-2.7,2.3-4c0.9-1.4,1.9-2.8,2.8-4.2c0.3-0.5,0.5-1.2,0.6-1.8
		c0-0.4-0.2-0.8-0.5-1.1c-0.4-0.4-0.8-0.1-1.2,0.1c-0.4,0.2-0.7,0.6-1.4,0.6c0.4-0.4,0.7-0.6,0.9-0.8c0.1-0.1,0.1-0.4,0.1-0.6
		c-0.1-0.1-0.4-0.3-0.5-0.3c-1.1,0.4-2.3,0.2-3.3,1c-0.6,0.5-1.3,0.9-1.9,1.4c-0.2,0.2-0.4,0.6-0.4,0.8c0,0.8,0.1,1.6,0.2,2.6
		c0.6-0.2,1.1-0.2,1.5-0.5c0.8-0.5,1.6-1.2,2.3-1.8c0.3-0.3,0.6-0.7,1.1-0.3c0,0.1,0,0.2-0.1,0.3c-1,2.1-1.9,4.2-2.9,6.3
		c-0.4,0.9-0.7,1.8-1,2.8c-0.4,1.2,0.1,1.8,1.3,1.6c0.7-0.1,1.3-0.4,1.9-0.7c0.5-0.2,1-0.6,1.5-0.8c0,0.5-0.2,0.9-0.4,1.3
		c-1.4,3.1-2.8,6.3-4.3,9.4c-0.9,1.9-0.6,3.8-0.4,5.8c0.6,0,1.2,0,1.7,0c0.1-0.2,0.2-0.4,0.3-0.6c2.2-4.8,4.4-9.5,6.6-14.3
		C17.1,224.1,17.7,223.2,18.1,222.3z"/>
	<path d="M20.1,111.1c0-2.8,0-5.7,0-8.5c0.1-4.6,0.4-9.3,1.7-13.8c0-0.2,0.1-0.3,0.1-0.5c0.1-0.8-0.2-1.4-0.9-1.7
		c-0.6-0.3-1.3-0.2-1.9,0.4c-0.4,0.5-0.8,1-1,1.6c-0.4,1-0.7,2.1-0.9,3.2c-0.9,4.6-1,9.2-1,13.9c0,1.2-0.1,2.4,0,3.6
		c0.2,2.3,0,4.7,0.8,6.9c0.5,1.6,1,3.2,1,4.9c0,0.6,0.3,1,0.9,1.1c0.5,0.1,1.1-0.2,1.2-0.9c0.1-0.6,0.2-1.3,0-1.9
		c-0.3-1.4-0.4-2.7-0.3-4.1C20.1,114,20.1,112.6,20.1,111.1z"/>
	<path d="M8.3,270.8c4-5.3,8.4-10.4,12.9-15.3c1.5-1.7,3.3-3.2,4.4-5.2c0.7-1.2,1.7-2,2.9-2.6c0.3-0.2,0.6-0.4,1-0.6
		c-0.8-0.3-0.8-0.3-1.4,0c-0.8,0.4-1.6,1.1-2.5,1.3c-3.3,0.7-5.9,2.5-8.2,4.8c-2.7,2.6-5.2,5.4-7.7,8.2c-1,1.1-1.8,2.2-2.7,3.3
		c0,2,0.1,4,0.3,6c0.1,0.3,0.1,0.6,0.2,0.9C8,271.1,8.1,271,8.3,270.8z"/>
	<path d="M47,54.2c0.5-0.3,0.7-0.7,0.6-1.3c-0.1-0.6-0.6-0.8-1.1-1c-0.2-0.1-0.5,0-1-0.1c-0.3,0.1-0.8,0.1-1.3,0.2
		c-2.2,0.6-4.2,1.7-6,3.1c-4.9,3.8-8.6,8.6-10.9,14.3c-0.8,2.1-1.2,4.3-1.8,6.4c-0.1,0.5,0,0.9,0.5,1.1c0.5,0.2,0.8-0.1,1-0.6
		c0-0.1,0.1-0.3,0.1-0.4c0.4-0.9,0.7-1.8,1.2-2.5c1.6-2.5,3.4-4.9,5.1-7.3c2.8-4,6.5-7.3,10.6-10C44.9,55.5,45.9,54.8,47,54.2z"/>
	<path d="M264.1,145.7c4.5,3,9,6.1,13.4,9.2c4,2.8,7.8,6,10.5,10.2c0.1,0.1,0.3,0.2,0.6,0.4c0.2-0.6-0.2-0.9-0.4-1.3
		c-1.2-1.7-2.4-3.3-3.7-4.9c-5.3-6.4-11.6-11.7-18.8-15.9c-3.1-1.8-6.4-3.4-9.9-4.4c-2.2-0.6-4.3-0.6-6.5-0.2c-0.5,0.1-1,0.2-1.3,1
		c0.4,0.2,0.7,0.5,1.2,0.6c0.9,0.2,1.8,0.3,2.7,0.5c1.3,0.2,2.6,0.4,3.8,0.7C258.6,142.6,261.4,144,264.1,145.7z"/>
	<path d="M313.5,100.1c0.1,0.8,0.2,1.6,0.6,2.4c0.4,0.8,0.7,1.5,0.6,2.4c-0.1,0.8,0.4,1.3,1,1.4c0.7,0.1,1.4-0.3,1.4-1.2
		c0.1-1.2,0.5-2.2,1-3.3c0.1-0.3,0.2-0.7,0.2-1c0.1-1.5,0.3-3,0.4-4.7c-0.2-2.1-0.4-4.4-0.7-6.6c-0.2-1.6-0.8-3.2-1.6-4.6
		c-0.2-0.4-0.5-0.7-0.8-1c-0.8-0.8-1.8-0.8-2.4,0.2c-0.4,0.6-0.6,1.3-0.6,2.1c-0.1,0.8,0,1.7,0.1,2.6c0.1,2.4,0.3,4.7,0.5,7.1
		C313.3,97.3,313.4,98.7,313.5,100.1z"/>
	<path d="M274.4,306.7c0.5-0.2,0.9-0.2,1.5,0.1c0.3,0.1,0.9,0,1.2-0.2c0.4-0.3,0.4-0.9,0.2-1.3c-0.2-0.3-0.6-0.7-0.9-0.8
		c-1.2-0.4-2.4-0.8-3.6-0.9c-4.6-0.6-8.8-2.3-12.8-4.6c-0.8-0.5-1.6-0.8-2.4-1.2c-0.5-0.2-1-0.3-1.2-0.4c-1.3,0-2.2,0.5-2.5,1.3
		c-0.3,0.8,0,1.6,0.8,2.3c0.2,0.2,0.5,0.4,0.7,0.5c0.8,0.5,1.5,1,2.3,1.4c2.9,1.7,5.8,3.3,9.1,4.1
		C269.4,307.6,272,307.7,274.4,306.7z"/>
	<path d="M22,27.1c0.7,2.8,1.6,5.5,3,8c0.3,0.5,0.6,0.9,1.1,1.6c0.4-1,0.6-1.6,0.9-2.2c0.9-1.5,1-3,0.1-4.6
		c-0.7-1.2-0.4-2.2,0.3-3.3c1.8-3,3.5-6,5.2-9.1C28.7,20.3,25.1,23.5,22,27.1z"/>
	<path d="M24.8,262.2c-0.9,0.4-1.8,0.9-2.6,1.4c-0.7,0.4-1.5,0.8-2.1,1.2c-4.3,3-7.5,7-10.6,11.1c-0.2,0.2-0.3,0.6-0.2,0.8
		c0.6,1.7,1.2,3.4,1.8,5.2c0.3-0.3,0.4-0.5,0.6-0.6c4.1-5.4,8.2-10.9,12.2-16.3c0.6-0.8,1.2-1.3,2.1-1.7c0.2-0.1,0.4-0.1,0.5-0.2
		c0.2-0.2,0.4-0.5,0.3-0.7c-0.1-0.2-0.4-0.5-0.6-0.5C25.6,261.9,25.2,262,24.8,262.2z"/>
	<path d="M28.5,117.7c-0.1-4.3-0.1-8.7-0.2-13c0-0.8-0.1-1.6-0.3-2.4c-0.1-0.6-0.5-1-1.4-1c-0.2,0.2-0.6,0.5-0.9,0.8
		c-0.7,1.1-1,2.3-1,3.6c-0.1,4-0.2,8.1-0.2,12.1c0,1.2,0.1,2.3,0.3,3.5c0.2,1.4,0.7,2.8,1.8,3.8c0.8,0.6,1.6,1.1,1.9,2.2
		c0.1,0.2,0.5,0.4,0.7,0.4c0.3-0.1,0.5-0.4,0.6-0.7c0.1-0.2,0-0.5-0.1-0.6c-0.8-1-0.7-2.2-0.8-3.3C28.8,121.1,28.6,119.4,28.5,117.7
		z"/>
	<path d="M270.5,297.8c4.6,3.2,9.7,4.1,15.2,3c0.9-0.2,1.7-0.5,2.6,0c0.4,0.3,1,0.1,1.2-0.3c0.2-0.4,0.3-0.9,0.2-1.3
		c-0.2-0.8-0.9-1.1-1.6-1.2c-0.6-0.1-1.1-0.2-1.6-0.3c-0.9-0.2-1.8-0.4-2.8-0.5c-1.6-0.2-3.2-0.3-4.9-0.6c-2-0.3-3.8-1-5.6-1.9
		c-0.8-0.4-1.6-0.8-2.5-1c-1.1-0.3-2,0.4-2,1.7c0.1,0.2,0.1,0.7,0.4,1C269.6,296.8,270,297.4,270.5,297.8z"/>
	<path d="M322.3,91.2c0.3-0.7,0.4-1.4,0.5-2.1c0.1-0.8,0.2-1.5,0.4-2.3c0.1-0.7,0.3-1.3,0.4-1.8c-0.5-4.4-1.6-8.3-3.9-11.9
		c-0.4-0.6-1-1.2-1.6-1.7c-0.7-0.5-1.4-0.6-2.2-0.1c-0.7,0.5-1,1.2-0.8,2c0.1,0.5,0.3,1.1,0.5,1.6c0.9,2.7,1.9,5.3,2.8,8
		c0.5,1.3,0.9,2.7,1.6,3.9c0.7,1.2,1.1,2.4,0.5,3.7c-0.2,0.5-0.1,0.9,0.4,1.2C321.4,92,322,91.9,322.3,91.2z"/>
	<path d="M26.2,274.5c-0.2-0.5-0.7-0.8-1.3-0.7c-0.5,0.1-1.1,0.4-1.4,0.8c-0.9,0.9-2,1.6-3.2,2.1c-0.5,0.2-0.9,0.5-1.3,0.8
		c-2.5,1.9-4.6,4.2-6.4,6.6c-0.2,0.2-0.3,0.7-0.2,0.9c0.7,1.9,1.5,3.8,2.2,5.8c2.1-2.8,4.1-5.4,6.1-8c0.7-1,1.5-2,2.1-3.1
		c0.8-1.5,1.6-3.1,3.2-3.9C26.3,275.6,26.5,275.1,26.2,274.5z"/>
	<path d="M298.6,292.6c0.6-0.6,1-1.2,2-1.3c0.5,0,0.8-0.5,0.7-1.1c-0.1-0.5-0.5-0.9-1.1-0.9c-0.3,0-0.7,0.2-1,0.2
		c-0.4,0.1-0.7,0.3-1.1,0.3c-3,0.2-6,0.5-9,0.7c0-0.1,0-0.1,0-0.2c-1.6,0-3.3,0-4.9,0c-0.5,0-0.9,0.1-1.4,0.3
		c-0.7,0.3-1.2,0.8-1.2,1.7c-0.1,0.9,0.2,1.5,1,2c0.4,0.2,0.8,0.4,1.2,0.5c3.2,0.9,6.4,0.7,9.6,0.4
		C295.4,294.9,297.2,294.1,298.6,292.6z"/>
	<path d="M296.7,64.7c-1-1.5-2-3.1-3.4-4.2c-0.6-0.5-1.3-0.9-2-1.1c-1-0.3-1.7,0.4-1.4,1.5c0.1,0.3,0.2,0.6,0.4,0.8
		c0.4,0.7,0.8,1.4,1.3,2.1c2.2,3.6,4.3,7.3,5.4,11.5c0.1,0.4,0.3,0.8,0.5,1.2c0.5,0.8,0.7,1.7,0.5,2.7c0,0.3,0,0.7,0,1.1
		c0,0.5,0.3,0.8,0.8,0.9c0.5,0.1,0.9-0.2,1-0.6c0.1-0.6,0.2-1.2,0.3-1.8c0.1-0.7,0.1-1.5,0.3-2.1c0.3-1,0.3-1.9,0.1-2.9
		C299.9,70.3,298.4,67.4,296.7,64.7z"/>
	<path d="M295,16.1c2.2,3.3,4,6.7,4.6,10.7c0,0.3,0.2,0.6,0.3,1c0.1,0.4,0.3,0.8,0.3,1.2c0.1,1,0.8,2.1,1.7,2.7
		c0.4-1.1,0.9-2.2,1.1-3.4c0.5-2.5,0.3-5.1,0.3-7.7c-0.9-0.7-1.7-1.4-2.6-2.1c-0.1,0.1-0.1,0.2-0.2,0.4c-0.1,0.4-0.2,0.9-0.3,1.6
		c-0.3-0.6-0.4-0.8-0.6-1.1c-0.5-0.9-1.1-1.9-1.7-2.8c-1.5-1-3.1-2-4.7-2.9C293.9,14.4,294.5,15.3,295,16.1z"/>
	<path d="M69.8,141.1c0.3,0.2,0.7,0.4,1,0.4c1,0.1,2,0.2,2.9,0.1c2.4-0.2,4.9-0.4,7.3-0.7c2-0.2,4-0.1,6-0.7
		c1.4-0.5,2.8-0.6,4.3-0.5c0.3,0,0.7,0.1,1,0c0.3-0.1,0.6-0.3,0.7-0.6c0.1-0.4-0.2-0.7-0.6-0.8c-0.4-0.1-0.9,0-1.3-0.1
		c-1.1-0.1-2.1-0.1-3.2-0.3c-1.5-0.2-2.9-0.5-4.2-0.8c-1.5,0.1-2.7,0.1-3.9,0.2c-2.9,0.3-5.8,0.7-8.7,1.1c-0.5,0.1-1.1,0.3-1.5,0.6
		C69,139.6,69,140.5,69.8,141.1z"/>
	<path d="M276.6,120.4c-2.6-1.7-5.5-2.4-8.4-2.4c-0.3,0-0.4,0-0.6,0c-1,0.1-2,0.1-3,0.2c-1.3,0.2-2.2,1-2.2,2.1c0,1.1,0.8,2,2.1,2.2
		c0.3,0.1,0.7,0,1,0.1c2.8,0.2,5.6,0.2,8.4,1c1,0.3,2.1,0.3,3.2,0.4c0.6,0.1,1,0.1,1.1,0.8c0.1,0.4,0.4,0.8,0.8,0.5
		c0.3-0.1,0.6-0.6,0.6-0.9c0-0.4-0.2-0.8-0.5-1.1c-0.4-0.5-0.8-1-1.2-1.5C277.7,121.4,277.2,120.8,276.6,120.4z"/>
	<path d="M17.2,160.4c-0.2,0-0.3-0.1-0.4-0.1c-3.4,0.1-6.6-0.7-9.2-3c-0.2-0.1-0.4-0.3-0.6-0.4v3.7c0,0,0.1,0.1,0.1,0.1
		c0.7,0.5,1.4,1,2.2,1.6c-0.8,0.7-1.5,1.3-2.3,2v5.5c0,0,0,0,0,0c2.9-2.4,5.8-4.9,8.7-7.3C16.4,161.9,16.8,161.2,17.2,160.4z"/>
	<path d="M316.2,160.4c1.5,1.5,2.9,3.1,4.4,4.6c0.2,0.2,0.5,0.4,0.8,0.6c0-3.9,0-7.6,0-11.3c-1.9-0.5-3.8-0.4-5.7-0.2
		c-0.9,0.1-1.7,0.9-2.5,1.4c-0.3,0.2-0.4,0.8-0.3,1.2c0.1,0.5,0.5,1,0.8,1.4C314.6,158.9,315.4,159.6,316.2,160.4z"/>
	<path d="M70.7,117.6c-0.5-0.5-1.2-0.9-1.8-1.1c-1.9-0.7-4-1-6.4-1c-1.8,0.2-3.9,0.4-6,0.6c-0.1,0-0.2,0.1-0.4,0.1
		c-0.8,0.3-1.2,0.8-1.1,1.6c0.1,0.7,0.6,1.3,1.4,1.3c1.5-0.1,2.8,0.5,4.2,0.6c2.7,0.2,5.3,0.4,8,0.5c0.6,0,1.4-0.2,1.9-0.6
		C71.3,119.1,71.4,118.2,70.7,117.6z"/>
	<path d="M75.5,146.2c1.2-0.4,2.4-0.7,3.6-0.6c0.4,0,0.8-0.1,1.2-0.1c0-0.1,0-0.3,0-0.4c-0.4,0-0.7-0.1-1.1-0.1
		c-1.3,0.1-2.5-0.2-3.6-0.7c-0.7-0.3-1.4-0.5-2.1-0.5c-2.9-0.2-5.8,0-8.6,0.8c-1.1,0.3-2.1,0.9-3.1,1.5c-0.5,0.3-0.8,0.9-1.1,1.4
		c-0.3,0.5-0.1,0.9,0.2,1.3c0.4,0.4,0.8,0.5,1.3,0.3c2.7-1.2,5.6-1.4,8.4-1.7C72.3,146.9,73.9,146.6,75.5,146.2z"/>
	<path d="M39.9,69.9c0-0.8-0.6-1.3-1.2-0.9c-0.3,0.2-0.6,0.4-0.7,0.7c-1,1.5-2.1,3.1-3,4.6C32,79.2,31.1,84.7,29.3,90
		c-0.1,0.4,0,0.8,0.4,1c0.4,0.2,0.8,0.1,1-0.3c0.3-0.6,0.6-1.2,0.8-1.8c0.4-1,0.6-2,1-2.9c2-5.3,4.2-10.4,7.1-15.3
		C39.7,70.4,39.8,70.1,39.9,69.9z"/>
	<path d="M52.3,157.9c-2.6,4-4.3,8.2-4.1,13.1c0,0.2,0.1,0.4,0.2,0.5c0.1,0,0.1,0,0.2-0.1c0.2-0.7,0.2-1.4,0.5-2
		c1.1-3.1,2.6-5.9,4.5-8.5c2.4-3.3,5-6.3,7.8-9.3c0.3-0.3,0.6-0.6,0.9-1c-1.8,0.8-3.3,1.9-5,2.6C55,154.3,53.5,155.9,52.3,157.9z"/>
	<path d="M305.8,25.3c-0.4,0.6-0.7,1.2-0.8,1.9c-0.4,1.8-0.7,3.7-1.2,5.5c-0.5,1.7,0.1,2.9,1.1,4.1c0.9-0.1,1.6-0.5,2-1.3
		c0.3-0.7,0.7-1.3,0.9-2c0.4-2,0.8-4,1.1-6.1c0.1-0.5,0-1-0.1-1.5c0-0.1,0-0.1-0.1-0.2c-0.4-0.4-0.7-0.8-1.1-1.1
		c-0.1,0-0.1-0.1-0.2-0.1C306.7,24.3,306.2,24.7,305.8,25.3z"/>
	<path d="M15.1,151.5c1-0.9,1.1-2,0.5-2.9c-0.6-0.9-1.8-1.3-3-0.7c-0.7,0.3-1.5,0.8-2.1,1.3c-1.2,1.1-2.4,2.3-3.5,3.5v1.3
		c1.3,0.5,2.6,0.9,3.8,1.4C12.3,154.1,13.7,152.9,15.1,151.5z"/>
	<path d="M49.9,180.5c-1.7-2.4-4.4-3.3-6.5-4.9c-0.2-0.2-0.9,0-1.3,0.2c-0.5,0.3-0.4,0.9-0.1,1.4c0.4,0.5,0.7,1,1.2,1.4
		c1.8,1.7,3.5,3.5,5.4,5.2c1.3,1.1,2.6,2.2,4,3.2c0.2,0.2,0.8,0.2,1,0c0.4-0.2,0.2-0.7,0.1-1c-0.1-0.1-0.2-0.3-0.3-0.4
		c-1.5-1.5-3-3.1-4.5-4.6c-0.3-0.3-0.6-0.6-0.9-0.9c0,0,0.1-0.1,0.1-0.1C48.6,180.2,49.2,180.3,49.9,180.5z"/>
	<path d="M311.3,218.8c2.2-0.4,4.4-0.9,6.8-1.4c-0.3-0.5-0.5-0.9-0.8-1.3c0.4-0.3,0.7-0.6,0.9-0.8c-0.2-0.3-0.5-0.7-0.7-1
		c-4.1,0.4-8,0.8-12.3,1.3c0.5,0.4,0.7,0.7,1.1,0.8c1.5,0.5,2.8,1.3,4.1,2.2C310.6,218.7,311,218.9,311.3,218.8z"/>
	<path d="M7,144.7c0.8,0,1.6-0.1,2.3-0.1c1.1,0,2.1,0,3.2-0.1c1-0.1,2-0.2,2.7-1.2c-3.2-1.6-5.8-3.7-8.2-6.2v0.5
		c0.4,0.6,0.9,1.1,1.3,1.7c-0.5,0.1-0.9,0.1-1.3,0.2V144.7z"/>
	<path d="M18.9,33.4c0.3,0.9,0.6,1.8,1,2.6c0.7,1.3,1.4,2.5,2.2,3.8c0.1,0.2,0.2,0.5,0.4,0.7c0.2,0.2,0.6,0.3,0.7,0.3
		c0.2-0.1,0.3-0.5,0.3-0.7c-0.1-0.5-0.3-0.9-0.6-1.4c0.6-0.7,0.7-1.5,0.3-2.4c-0.9-1.8-1.8-3.5-2-5.5c0,0,0-0.1,0-0.1
		c-0.2-0.7-0.6-1.1-1.2-1.1c-0.6,0.7-1.1,1.5-1.6,2.2C18.6,32.2,18.7,32.8,18.9,33.4z"/>
	<path d="M236.8,140c-0.5,0.6-0.3,1.2,0.3,1.8c0.6,0.6,1,0.6,1.7,0.1c0.6-0.4,1.3-0.7,2-1.1c1.1-0.6,2.2-1.1,3.3-1.6
		c0.9-0.5,1.9-1,3-1.6c-0.3-0.3-0.5-0.6-0.8-0.7c-1.3-0.4-2.7-0.6-4-0.1c-1.5,0.7-3,1.4-4.5,2.2C237.4,139.3,237,139.6,236.8,140z"
		/>
	<path d="M320.2,148.4c-0.1,0-0.1-0.2-0.2-0.4c0.5,0,0.9-0.1,1.4-0.1c0-0.8,0-1.4,0-2.3c-2,1.1-4,2.2-5.9,3.3c1,1.5,4.6,4.4,5.9,4.7
		c0-0.8-0.1-1.6,0-2.4C321.6,149.9,321.4,148.9,320.2,148.4z"/>
	<path d="M37,118.7c0-0.6-0.1-1.1-0.3-1.6c-0.1-0.6-0.5-1-1.1-1.1c-0.7-0.1-1.2,0.4-1.3,1c-0.3,0.9-0.4,1.9-0.6,2.9
		c0.1,2.3,0.2,2.6,1.8,4.2c0.2,0.2,0.3,0.4,0.5,0.6c0.5,0.6,1,0.8,1.4,0.5c0.4-0.3,0.5-0.8,0.3-1.5c-0.2-0.6-0.4-1.2-0.5-1.8
		C37.1,120.8,37.1,119.7,37,118.7z"/>
	<path d="M311.4,209.9c0.1,0,0.2-0.1,0.3-0.1c0.1-0.3,0.1-0.6,0.2-1c1.5-0.8,1.6-1.2,0.8-2.3c-3.9,1-7.8,2-11.7,3
		c0.6,0.7,1.4,1,2.3,0.9C306,210.3,308.7,210.1,311.4,209.9z"/>
	<path d="M173.3,189.5c0.9-0.9,1.8-1.9,2.6-2.9c0.7-0.8,1.4-1.6,1.9-2.6c0.5-0.9,1-1.7,2-2.2c-0.3-0.7-0.7-0.6-1.1-0.3
		c-0.8,0.5-1.6,1-2.3,1.6c-1.5,1.3-2.9,2.8-4.3,4.2c-0.3,0.3-0.4,0.9-0.5,1.4c-0.1,0.5,0.2,0.9,0.7,1.1
		C172.7,190.2,173,189.9,173.3,189.5z"/>
	<path d="M12.7,195.6c-0.5-0.5-0.9-0.3-1.4,0c-0.9,0.5-1.8,1-2.7,1.6c-0.5,0.3-1.1,0.6-1.6,1v3.7c2.1-1.3,3.6-3.3,5.5-4.8
		C13.1,196.7,13.1,196,12.7,195.6z"/>
	<path d="M282.2,102.7c0,0.1,0.2,0.3,0.3,0.4c0.2,0,0.5-0.1,0.5-0.2c0.1-0.5,0.3-1,0.2-1.5c-0.5-2.4-1.2-4.8-2.6-6.9
		c-0.4-0.6-1-1-1.5-1.5c-0.1,0.1-0.2,0.1-0.3,0.2c0.1,0.9,0.5,1.8,0.9,2.6C280.6,98.1,282.2,100.1,282.2,102.7z"/>
	<path d="M155.7,181.6c-0.5-0.3-1-0.4-1.4,0.1c-0.4,0.5-0.1,1,0.2,1.4c0.8,1.1,1.6,2.2,2.4,3.3c0.4,0.5,0.8,0.9,1.5,1
		c0.1-0.2,0.2-0.3,0.2-0.5c0.1-0.2,0.1-0.4,0.1-0.6C158.4,184.3,157.4,182.7,155.7,181.6z"/>
	<path d="M157.5,189.4c-0.4-0.3-0.7-0.3-1,0.1c-0.2,0.3-0.2,0.6-0.4,1c0.2,0.5,0.3,1,0.6,1.4c0.9,1.2,1.9,2.4,2.9,3.5
		c0.1,0.1,0.5,0.2,0.7,0.1c0.2-0.1,0.3-0.5,0.4-0.7c0-0.1-0.1-0.3-0.1-0.5c-1-1.6-2-3.2-2.9-4.8
		C157.6,189.5,157.6,189.5,157.5,189.4z"/>
	<path d="M49.8,174.8c-1-1.1-2.1-2.3-3.3-3.6c0,1.8,0.4,3.3,1.3,4.5c0.3,0.4,0.6,0.7,1,1c0.4,0.3,0.8,0.2,1.2-0.1
		c0.4-0.3,0.4-0.7,0.2-1.2C50.1,175.2,50,175,49.8,174.8z"/>
	<path d="M8.9,244.1c0.1,0,0.1,0,0.2,0c0.6-1.2,1.2-2.3,1.8-3.6c-0.7,0-1.3,0-2,0C8.9,241.7,8.9,242.9,8.9,244.1z"/>
</g>
<path fill="none" stroke="#e5e7eb" stroke-width="5" stroke-miterlimit="10" d="M324.9,264.3c0,33.8-27.2,61.2-60.9,61.2H67.9
	C34.3,325.5,7,298.1,7,264.3V67.2C7,33.4,34.3,6.1,67.9,6.1h196.1c33.6,0,60.9,27.4,60.9,61.2V264.3z"/>
</svg>
